<svg xmlns="http://www.w3.org/2000/svg" viewBox="82.18498229980469 68.96714782714844 410.6300048828125 437.255708694458"><rect height="100%" width="100%" x="82.18498229980469" y="68.96714782714844" fill="#ffffff"/> <svg xmlns="http://www.w3.org/2000/svg" xmlns:xlink="http://www.w3.org/1999/xlink" version="1.1" id="Layer_1" x="172.4999771118164" y="138.96714782714844" viewBox="685.5999755859375 432 506.0999755859375 446.0999755859375" xml:space="preserve" height="202.7257080078125" width="230.00001525878906" preserveAspectRatio="xMinYMin" enable-background="new 0 0 1933.2 1301.1" style="overflow: visible;"><polygon class="st0" points="728.5,474.9 1063.1,474.9 1063.1,432 685.6,432 685.6,809.5 728.5,809.5 " style="fill: #28AAE1;"></polygon><polygon class="st1" points="943,800.9 943,534.9 1131.7,534.9 1131.7,500.6 754.2,500.6 754.2,878.1 1131.7,878.1 1131.7,800.9 " style="fill: #F69220;"></polygon><path class="st0" d="M960.1,552.1v231.6h231.6V552.1H960.1z M1003.9,688c-8.2,0-14.8-6.6-14.8-14.8s6.6-14.8,14.8-14.8  s14.8,6.6,14.8,14.8S1012.1,688,1003.9,688z" style="fill: #28AAE1;"></path><circle class="st1" cx="1003.9" cy="673.2" r="6.8" style="fill: #F69220;"></circle></svg> <svg y="418.69285583496094" viewBox="0.5299999713897705 3.009999990463257 270.6300048828125 17.530000686645508" x="152.1849822998047" height="17.530000686645508" width="270.6300048828125" xmlns="http://www.w3.org/2000/svg" style="overflow: visible;"><g fill="#28AAE1" fill-opacity="1" style=""><path d="M3.66 16.70L2.03 16.70L2.03 8.45L0.53 8.45L0.53 7.19L2.03 7.19L2.03 6.21Q2.03 4.68 2.85 3.85Q3.67 3.01 5.16 3.01L5.16 3.01Q5.72 3.01 6.28 3.16L6.28 3.16L6.19 4.48Q5.77 4.40 5.31 4.40L5.31 4.40Q4.52 4.40 4.09 4.86Q3.66 5.33 3.66 6.19L3.66 6.19L3.66 7.19L5.69 7.19L5.69 8.45L3.66 8.45L3.66 16.70ZM9.39 11.97L9.39 11.86Q9.39 10.46 9.94 9.34Q10.49 8.23 11.47 7.62Q12.45 7.01 13.70 7.01L13.70 7.01Q15.65 7.01 16.85 8.36Q18.05 9.70 18.05 11.94L18.05 11.94L18.05 12.05Q18.05 13.44 17.51 14.54Q16.98 15.64 15.99 16.26Q15.01 16.88 13.72 16.88L13.72 16.88Q11.79 16.88 10.59 15.53Q9.39 14.19 9.39 11.97L9.39 11.97ZM11.02 12.05L11.02 12.05Q11.02 13.63 11.76 14.59Q12.49 15.55 13.72 15.55L13.72 15.55Q14.96 15.55 15.69 14.58Q16.42 13.61 16.42 11.86L16.42 11.86Q16.42 10.29 15.68 9.32Q14.93 8.35 13.70 8.35L13.70 8.35Q12.50 8.35 11.76 9.31Q11.02 10.27 11.02 12.05ZM27.02 7.14L27.02 8.65Q26.65 8.59 26.22 8.59L26.22 8.59Q24.62 8.59 24.05 9.95L24.05 9.95L24.05 16.70L22.43 16.70L22.43 7.19L24.01 7.19L24.03 8.29Q24.83 7.01 26.30 7.01L26.30 7.01Q26.78 7.01 27.02 7.14L27.02 7.14ZM30.85 7.19L32.39 7.19L32.43 8.24Q33.48 7.01 35.25 7.01L35.25 7.01Q37.25 7.01 37.97 8.54L37.97 8.54Q38.44 7.86 39.20 7.44Q39.96 7.01 41.00 7.01L41.00 7.01Q44.13 7.01 44.18 10.33L44.18 10.33L44.18 16.70L42.55 16.70L42.55 10.42Q42.55 9.40 42.09 8.90Q41.62 8.39 40.52 8.39L40.52 8.39Q39.62 8.39 39.02 8.93Q38.42 9.47 38.33 10.39L38.33 10.39L38.33 16.70L36.69 16.70L36.69 10.47Q36.69 8.39 34.66 8.39L34.66 8.39Q33.06 8.39 32.47 9.76L32.47 9.76L32.47 16.70L30.85 16.70L30.85 7.19ZM56.55 16.70L54.84 16.70Q54.70 16.42 54.61 15.70L54.61 15.70Q53.48 16.88 51.91 16.88L51.91 16.88Q50.50 16.88 49.60 16.08Q48.70 15.28 48.70 14.06L48.70 14.06Q48.70 12.58 49.83 11.76Q50.96 10.93 53.01 10.93L53.01 10.93L54.59 10.93L54.59 10.19Q54.59 9.33 54.08 8.83Q53.57 8.32 52.58 8.32L52.58 8.32Q51.71 8.32 51.12 8.76Q50.53 9.20 50.53 9.83L50.53 9.83L48.89 9.83Q48.89 9.11 49.40 8.45Q49.90 7.79 50.77 7.40Q51.64 7.01 52.67 7.01L52.67 7.01Q54.32 7.01 55.25 7.84Q56.18 8.66 56.21 10.10L56.21 10.10L56.21 14.48Q56.21 15.79 56.55 16.56L56.55 16.56L56.55 16.70ZM52.15 15.46L52.15 15.46Q52.91 15.46 53.60 15.06Q54.28 14.67 54.59 14.04L54.59 14.04L54.59 12.08L53.31 12.08Q50.33 12.08 50.33 13.83L50.33 13.83Q50.33 14.60 50.84 15.03Q51.35 15.46 52.15 15.46ZM61.68 4.89L63.31 4.89L63.31 7.19L65.08 7.19L65.08 8.45L63.31 8.45L63.31 14.34Q63.31 14.92 63.55 15.20Q63.78 15.49 64.36 15.49L64.36 15.49Q64.64 15.49 65.13 15.38L65.13 15.38L65.13 16.70Q64.49 16.88 63.88 16.88L63.88 16.88Q62.79 16.88 62.24 16.22Q61.68 15.56 61.68 14.34L61.68 14.34L61.68 8.45L59.95 8.45L59.95 7.19L61.68 7.19L61.68 4.89ZM83.70 16.70L81.99 16.70Q81.85 16.42 81.76 15.70L81.76 15.70Q80.63 16.88 79.05 16.88L79.05 16.88Q77.65 16.88 76.75 16.08Q75.85 15.28 75.85 14.06L75.85 14.06Q75.85 12.58 76.98 11.76Q78.11 10.93 80.15 10.93L80.15 10.93L81.74 10.93L81.74 10.19Q81.74 9.33 81.23 8.83Q80.72 8.32 79.72 8.32L79.72 8.32Q78.85 8.32 78.26 8.76Q77.67 9.20 77.67 9.83L77.67 9.83L76.04 9.83Q76.04 9.11 76.55 8.45Q77.05 7.79 77.92 7.40Q78.78 7.01 79.82 7.01L79.82 7.01Q81.46 7.01 82.39 7.84Q83.33 8.66 83.36 10.10L83.36 10.10L83.36 14.48Q83.36 15.79 83.70 16.56L83.70 16.56L83.70 16.70ZM79.29 15.46L79.29 15.46Q80.06 15.46 80.74 15.06Q81.43 14.67 81.74 14.04L81.74 14.04L81.74 12.08L80.46 12.08Q77.47 12.08 77.47 13.83L77.47 13.83Q77.47 14.60 77.98 15.03Q78.49 15.46 79.29 15.46ZM88.25 7.19L89.79 7.19L89.84 8.38Q90.93 7.01 92.69 7.01L92.69 7.01Q95.70 7.01 95.73 10.42L95.73 10.42L95.73 16.70L94.10 16.70L94.10 10.41Q94.10 9.38 93.63 8.89Q93.17 8.39 92.20 8.39L92.20 8.39Q91.41 8.39 90.81 8.82Q90.21 9.24 89.88 9.92L89.88 9.92L89.88 16.70L88.25 16.70L88.25 7.19ZM108.10 16.70L106.39 16.70Q106.25 16.42 106.16 15.70L106.16 15.70Q105.03 16.88 103.46 16.88L103.46 16.88Q102.05 16.88 101.15 16.08Q100.25 15.28 100.25 14.06L100.25 14.06Q100.25 12.58 101.38 11.76Q102.51 10.93 104.56 10.93L104.56 10.93L106.14 10.93L106.14 10.19Q106.14 9.33 105.63 8.83Q105.12 8.32 104.13 8.32L104.13 8.32Q103.26 8.32 102.67 8.76Q102.08 9.20 102.08 9.83L102.08 9.83L100.44 9.83Q100.44 9.11 100.95 8.45Q101.45 7.79 102.32 7.40Q103.19 7.01 104.22 7.01L104.22 7.01Q105.87 7.01 106.80 7.84Q107.73 8.66 107.76 10.10L107.76 10.10L107.76 14.48Q107.76 15.79 108.10 16.56L108.10 16.56L108.10 16.70ZM103.69 15.46L103.69 15.46Q104.46 15.46 105.14 15.06Q105.83 14.67 106.14 14.04L106.14 14.04L106.14 12.08L104.86 12.08Q101.88 12.08 101.88 13.83L101.88 13.83Q101.88 14.60 102.39 15.03Q102.89 15.46 103.69 15.46ZM114.42 3.20L114.42 16.70L112.79 16.70L112.79 3.20L114.42 3.20ZM120.10 7.19L122.47 14.32L124.69 7.19L126.43 7.19L122.60 18.17Q121.72 20.54 119.78 20.54L119.78 20.54L119.48 20.51L118.87 20.40L118.87 19.08L119.31 19.12Q120.13 19.12 120.60 18.78Q121.06 18.45 121.36 17.56L121.36 17.56L121.72 16.59L118.32 7.19L120.10 7.19ZM135.75 14.18L135.75 14.18Q135.75 13.52 135.26 13.15Q134.76 12.79 133.53 12.52Q132.29 12.26 131.57 11.89Q130.84 11.52 130.49 11.01Q130.15 10.50 130.15 9.80L130.15 9.80Q130.15 8.63 131.14 7.82Q132.12 7.01 133.66 7.01L133.66 7.01Q135.28 7.01 136.29 7.85Q137.29 8.68 137.29 9.98L137.29 9.98L135.66 9.98Q135.66 9.32 135.09 8.83Q134.52 8.35 133.66 8.35L133.66 8.35Q132.78 8.35 132.27 8.74Q131.77 9.12 131.77 9.75L131.77 9.75Q131.77 10.34 132.24 10.63Q132.71 10.93 133.92 11.21Q135.14 11.48 135.90 11.86Q136.65 12.23 137.02 12.77Q137.38 13.30 137.38 14.06L137.38 14.06Q137.38 15.34 136.36 16.11Q135.34 16.88 133.72 16.88L133.72 16.88Q132.57 16.88 131.69 16.47Q130.82 16.07 130.32 15.34Q129.82 14.62 129.82 13.77L129.82 13.77L131.45 13.77Q131.49 14.59 132.10 15.07Q132.71 15.55 133.72 15.55L133.72 15.55Q134.64 15.55 135.20 15.17Q135.75 14.80 135.75 14.18ZM143.61 7.19L143.61 16.70L141.98 16.70L141.98 7.19L143.61 7.19ZM141.85 4.67L141.85 4.67Q141.85 4.27 142.09 4.00Q142.33 3.73 142.81 3.73Q143.28 3.73 143.53 4.00Q143.77 4.27 143.77 4.67Q143.77 5.06 143.53 5.33Q143.28 5.59 142.81 5.59Q142.33 5.59 142.09 5.33Q141.85 5.06 141.85 4.67ZM154.08 14.18L154.08 14.18Q154.08 13.52 153.59 13.15Q153.09 12.79 151.86 12.52Q150.62 12.26 149.90 11.89Q149.17 11.52 148.82 11.01Q148.48 10.50 148.48 9.80L148.48 9.80Q148.48 8.63 149.47 7.82Q150.45 7.01 151.99 7.01L151.99 7.01Q153.61 7.01 154.62 7.85Q155.62 8.68 155.62 9.98L155.62 9.98L153.99 9.98Q153.99 9.32 153.42 8.83Q152.85 8.35 151.99 8.35L151.99 8.35Q151.10 8.35 150.60 8.74Q150.10 9.12 150.10 9.75L150.10 9.75Q150.10 10.34 150.57 10.63Q151.03 10.93 152.25 11.21Q153.47 11.48 154.22 11.86Q154.98 12.23 155.35 12.77Q155.71 13.30 155.71 14.06L155.71 14.06Q155.71 15.34 154.69 16.11Q153.67 16.88 152.05 16.88L152.05 16.88Q150.90 16.88 150.02 16.47Q149.14 16.07 148.65 15.34Q148.15 14.62 148.15 13.77L148.15 13.77L149.78 13.77Q149.82 14.59 150.43 15.07Q151.04 15.55 152.05 15.55L152.05 15.55Q152.97 15.55 153.53 15.17Q154.08 14.80 154.08 14.18ZM173.13 7.19L175.38 14.46L177.21 7.19L178.84 7.19L176.07 16.70L174.75 16.70L172.44 9.49L170.19 16.70L168.87 16.70L166.11 7.19L167.73 7.19L169.60 14.31L171.82 7.19L173.13 7.19ZM182.40 11.97L182.40 11.86Q182.40 10.46 182.95 9.34Q183.50 8.23 184.48 7.62Q185.46 7.01 186.72 7.01L186.72 7.01Q188.66 7.01 189.86 8.36Q191.06 9.70 191.06 11.94L191.06 11.94L191.06 12.05Q191.06 13.44 190.53 14.54Q189.99 15.64 189.01 16.26Q188.02 16.88 186.73 16.88L186.73 16.88Q184.80 16.88 183.60 15.53Q182.40 14.19 182.40 11.97L182.40 11.97ZM184.03 12.05L184.03 12.05Q184.03 13.63 184.77 14.59Q185.50 15.55 186.73 15.55L186.73 15.55Q187.97 15.55 188.70 14.58Q189.43 13.61 189.43 11.86L189.43 11.86Q189.43 10.29 188.69 9.32Q187.95 8.35 186.72 8.35L186.72 8.35Q185.51 8.35 184.77 9.31Q184.03 10.27 184.03 12.05ZM200.03 7.14L200.03 8.65Q199.66 8.59 199.23 8.59L199.23 8.59Q197.63 8.59 197.06 9.95L197.06 9.95L197.06 16.70L195.44 16.70L195.44 7.19L197.02 7.19L197.04 8.29Q197.84 7.01 199.31 7.01L199.31 7.01Q199.79 7.01 200.03 7.14L200.03 7.14ZM209.84 16.70L206.52 12.30L205.50 13.36L205.50 16.70L203.88 16.70L203.88 3.20L205.50 3.20L205.50 11.36L206.37 10.32L209.33 7.19L211.31 7.19L207.61 11.16L211.74 16.70L209.84 16.70ZM223.38 11.91L223.38 12.05Q223.38 14.23 222.38 15.55Q221.38 16.88 219.69 16.88L219.69 16.88Q217.89 16.88 216.90 15.60L216.90 15.60L216.82 16.70L215.33 16.70L215.33 3.20L216.96 3.20L216.96 8.24Q217.94 7.01 219.67 7.01Q221.40 7.01 222.39 8.32Q223.38 9.63 223.38 11.91L223.38 11.91ZM221.76 11.87L221.76 11.87Q221.76 10.20 221.11 9.30Q220.47 8.39 219.27 8.39L219.27 8.39Q217.66 8.39 216.96 9.89L216.96 9.89L216.96 14.00Q217.70 15.50 219.29 15.50L219.29 15.50Q220.45 15.50 221.10 14.59Q221.76 13.68 221.76 11.87ZM231.72 16.88L231.72 16.88Q229.78 16.88 228.57 15.60Q227.36 14.33 227.36 12.21L227.36 12.21L227.36 11.91Q227.36 10.49 227.90 9.38Q228.44 8.27 229.41 7.64Q230.38 7.01 231.51 7.01L231.51 7.01Q233.37 7.01 234.40 8.24Q235.42 9.46 235.42 11.73L235.42 11.73L235.42 12.41L228.98 12.41Q229.02 13.82 229.80 14.68Q230.59 15.55 231.80 15.55L231.80 15.55Q232.66 15.55 233.26 15.20Q233.86 14.84 234.31 14.26L234.31 14.26L235.30 15.04Q234.11 16.88 231.72 16.88ZM231.51 8.35L231.51 8.35Q230.53 8.35 229.86 9.07Q229.19 9.78 229.03 11.07L229.03 11.07L233.80 11.07L233.80 10.95Q233.73 9.71 233.13 9.03Q232.53 8.35 231.51 8.35ZM239.65 7.19L241.18 7.19L241.24 8.38Q242.33 7.01 244.08 7.01L244.08 7.01Q247.10 7.01 247.12 10.42L247.12 10.42L247.12 16.70L245.50 16.70L245.50 10.41Q245.49 9.38 245.03 8.89Q244.57 8.39 243.59 8.39L243.59 8.39Q242.80 8.39 242.20 8.82Q241.61 9.24 241.27 9.92L241.27 9.92L241.27 16.70L239.65 16.70L239.65 7.19ZM255.73 15.55L255.73 15.55Q256.60 15.55 257.25 15.02Q257.90 14.49 257.97 13.70L257.97 13.70L259.51 13.70Q259.47 14.52 258.95 15.26Q258.43 16.00 257.56 16.44Q256.70 16.88 255.73 16.88L255.73 16.88Q253.79 16.88 252.64 15.58Q251.49 14.28 251.49 12.03L251.49 12.03L251.49 11.76Q251.49 10.37 252.00 9.29Q252.51 8.21 253.47 7.61Q254.42 7.01 255.72 7.01L255.72 7.01Q257.32 7.01 258.38 7.97Q259.44 8.93 259.51 10.46L259.51 10.46L257.97 10.46Q257.90 9.54 257.27 8.94Q256.65 8.35 255.72 8.35L255.72 8.35Q254.48 8.35 253.80 9.24Q253.12 10.13 253.12 11.82L253.12 11.82L253.12 12.13Q253.12 13.77 253.80 14.66Q254.47 15.55 255.73 15.55ZM265.30 3.20L265.30 8.34Q266.39 7.01 268.12 7.01L268.12 7.01Q271.13 7.01 271.16 10.42L271.16 10.42L271.16 16.70L269.53 16.70L269.53 10.41Q269.52 9.38 269.06 8.89Q268.60 8.39 267.62 8.39L267.62 8.39Q266.83 8.39 266.24 8.82Q265.64 9.24 265.30 9.92L265.30 9.92L265.30 16.70L263.68 16.70L263.68 3.20L265.30 3.20Z" transform="translate(0, 0)"></path></g></svg> <svg y="357.96714782714844" viewBox="4.289999961853027 11.270000457763672 97.31999969482422 36.970001220703125" x="238.83998611450193" height="36.970001220703125" width="97.31999969482422" xmlns="http://www.w3.org/2000/svg" style="overflow: visible;"><g fill="#F69220" fill-opacity="1" style=""><path d="M24.68 27.93L24.68 31.92L9.17 31.92L9.17 48.24L4.29 48.24L4.29 11.27L27.19 11.27L27.19 15.29L9.17 15.29L9.17 27.93L24.68 27.93ZM52.66 48.24L49.13 38.59L33.64 38.59L30.16 48.24L25.14 48.24L39.25 11.27L43.52 11.27L57.66 48.24L52.66 48.24ZM41.39 17.29L35.12 34.58L47.68 34.58L41.39 17.29ZM63.02 11.27L68.86 36.59L69.57 41.46L70.61 37.07L77.92 11.27L82.04 11.27L89.17 37.07L90.19 41.54L90.97 36.56L96.71 11.27L101.61 11.27L92.65 48.24L88.21 48.24L80.59 21.30L80.01 18.48L79.42 21.30L71.53 48.24L67.08 48.24L58.14 11.27L63.02 11.27Z" transform="translate(0, 0)"></path></g></svg></svg>